<svg width="258" height="134" viewBox="0 0 258 134" fill="none" xmlns="http://www.w3.org/2000/svg">
<path d="M203 99.7394V82.0194C197.139 83.5181 191.166 84.5625 185.139 85.1449C166.491 87.059 147.748 87.9539 129 87.8258C110.252 87.9481 91.509 87.0473 72.8613 85.1255C66.8344 84.545 60.8609 83.4987 55 82V99.72C61.183 102.515 88.4797 106 129 106C169.52 106 196.817 102.515 203 99.7394Z" fill="white"/>
<path d="M203 72.6363V27.7035C203 18.7102 198.627 10.2752 191.272 5.08326C183.916 -0.108724 174.494 -1.41264 166.001 1.5838L141.313 10.3108C133.339 13.0922 124.657 13.0922 116.683 10.3108L91.999 1.5838C83.5061 -1.41264 74.0844 -0.108724 66.7277 5.08326C59.3729 10.2752 55 18.7102 55 27.7035V72.6363C61.183 75.4571 88.4797 79 129 79C169.52 79 196.817 75.4571 203 72.6363ZM73.4995 55.9142C73.4995 58.4629 71.4286 60.5302 68.8756 60.5302C66.3206 60.5302 64.2498 58.4629 64.2498 55.9142V37.4444C64.2498 34.8957 66.3206 32.8284 68.8756 32.8284C71.4286 32.8284 73.4995 34.8957 73.4995 37.4444V55.9142ZM102.604 20.3298C104.41 18.5327 107.331 18.5327 109.135 20.3298C114.615 25.22 121.653 28.0132 129 28.2105C136.353 28.0546 143.403 25.2555 148.855 20.3298C150.669 18.5801 153.554 18.6057 155.338 20.385C157.123 22.1663 157.148 25.0464 155.396 26.8592C148.193 33.4971 138.801 37.2649 129 37.4444C119.199 37.2649 109.807 33.4971 102.604 26.8592C100.8 25.0562 100.8 22.1328 102.604 20.3298Z" fill="white"/>
<path d="M211.928 87V101.321C211.928 106.391 207.511 109.856 184.922 112.554C166.346 114.527 147.676 115.453 129 115.327C110.324 115.453 91.6539 114.527 73.0782 112.554C50.489 109.856 46.072 106.391 46.072 101.321V87C12.4402 95.0421 0 105.402 0 110.66C0 120.351 40.0271 134 129 134C217.973 134 258 120.351 258 110.66C258 105.402 245.56 95.0421 211.928 87Z" fill="white"/>
</svg>
