<svg width="252" height="161" viewBox="0 0 252 161" fill="none" xmlns="http://www.w3.org/2000/svg">
<path d="M211.057 43.0671C198.811 44.5482 176.446 41.9773 184.874 29.1167C188.805 26.827 192.72 25.0127 194.494 25.0127C198.012 25.0127 200.864 22.1605 200.864 18.6424C200.864 15.1233 198.012 12.271 194.494 12.271C189.293 12.271 182.693 15.5249 177.761 18.4836C173.699 16.4736 171.235 10.4131 171.235 10.4131H21.8008L10.6207 0V9.34973H0V43.8642H76.9583C88.6179 43.8642 106.912 50.3404 108.57 67.7912C108.384 69.0513 108.259 70.3264 108.259 71.6269C108.259 88.8126 124.922 102.795 145.402 102.795C157.116 102.795 167.582 98.2214 174.395 91.0934C174.802 90.6673 175.172 90.2195 175.552 89.7737L175.555 89.7898C175.555 89.7898 175.571 89.7555 175.578 89.7462C186.398 49.9668 211.057 43.0671 211.057 43.0671ZM128.954 21.2959H159.218C161.526 21.2959 163.401 23.1678 163.401 25.4772C163.401 27.785 161.527 29.6585 159.218 29.6585H128.954C126.645 29.6585 124.773 27.7856 124.773 25.4772C124.773 23.1683 126.645 21.2959 128.954 21.2959ZM128.954 35.2333H159.218C161.526 35.2333 163.401 37.1062 163.401 39.4146C163.401 41.7235 161.527 43.5959 159.218 43.5959H128.954C126.645 43.5959 124.773 41.724 124.773 39.4146C124.773 37.1062 126.645 35.2333 128.954 35.2333ZM145.402 88.5572C132.987 88.5572 122.496 80.8049 122.496 71.6269C122.496 62.4495 132.987 54.6935 145.402 54.6935C148.477 54.6935 151.432 55.172 154.142 56.0273C151.283 62.5294 146.19 71.0478 141.035 71.6705C138.416 71.9876 136.548 74.3707 136.866 76.991C137.159 79.4146 139.22 81.1946 141.605 81.1946C141.797 81.1946 141.991 81.1837 142.186 81.1604C152.397 79.9216 159.247 68.031 162.579 60.5833C166.12 63.5767 168.31 67.4492 168.31 71.6275C168.31 80.8049 157.819 88.5572 145.402 88.5572Z" fill="white"/>
<path d="M216.098 48.1067C187.959 56.8684 182.648 91.3829 182.648 91.3829C193.883 92.6144 195.923 132.269 195.923 132.269C192.153 152.296 227.577 178.617 244.507 141.557C267.577 91.0575 224.151 49.6434 216.098 48.1067Z" fill="white"/>
</svg>
