<svg width="179" height="190" viewBox="0 0 179 190" fill="none" xmlns="http://www.w3.org/2000/svg">
<path d="M166.118 123.387C164.061 123.387 162.145 123.918 160.419 124.781L144.14 96.5824L160.281 68.6232C161.327 68.898 162.408 69.0915 163.54 69.0915C170.639 69.0868 176.4 63.321 176.4 56.2171C176.391 49.1227 170.639 43.3689 163.54 43.3761C159.117 43.3713 155.225 45.5983 152.909 48.9889H116.661L99.8345 19.8446C101.141 17.8326 101.918 15.4455 101.92 12.8673C101.92 5.76101 96.1499 0 89.0436 0C81.9397 0.00477894 76.1835 5.76818 76.1835 12.8721C76.1883 15.3786 76.9362 17.7012 78.1787 19.6773L61.2541 48.9889H24.1456C21.9736 44.9603 17.7705 42.1909 12.8769 42.198C5.75862 42.1885 0.00716841 47.9423 0 55.0438C0 62.1501 5.76579 67.9135 12.8769 67.9135C14.9342 67.9135 16.8505 67.3807 18.5757 66.5205L34.8576 94.721L18.7143 122.683C17.6677 122.408 16.5877 122.214 15.4551 122.214C8.3512 122.214 2.59496 127.982 2.59496 135.086C2.60452 142.178 8.35359 147.934 15.4551 147.93C19.878 147.932 23.7728 145.705 26.0906 142.314H62.3365L78.6207 170.522C77.6673 172.317 77.0771 174.333 77.0747 176.508C77.0747 183.616 82.8405 189.377 89.9516 189.377C97.0507 189.373 102.812 183.607 102.812 176.503C102.807 174.4 102.253 172.446 101.354 170.692L117.739 142.314H154.852C157.024 146.341 161.227 149.11 166.123 149.11C173.237 149.113 178.993 143.361 179 136.26C178.995 129.151 173.225 123.387 166.118 123.387Z" fill="white"/>
</svg>
