<svg width="157" height="173" viewBox="0 0 157 173" fill="none" xmlns="http://www.w3.org/2000/svg">
<path d="M114.864 119.963C108.124 117.443 98.2953 110.084 98.2953 105.503C98.2953 102.467 98.2953 98.6755 98.2953 93.478C102.191 89.1442 105.152 80.3462 106.913 70.373C111.019 68.9073 113.365 66.5613 116.296 56.2972C119.412 45.3637 111.604 45.7354 111.604 45.7354C117.92 24.8291 109.607 5.18111 95.6814 6.62357C86.0765 -10.1797 53.9059 10.462 43.826 9.02327C43.826 14.786 46.2257 19.1066 46.2257 19.1066C42.7218 25.7597 44.0733 39.0256 45.0573 45.7354C44.4883 45.7253 37.4274 45.7989 40.4224 56.2972C43.354 66.561 45.6999 68.9073 49.8063 70.373C51.5633 80.3462 54.525 89.1442 58.4239 93.478C58.4239 98.6755 58.4239 102.467 58.4239 105.503C58.4239 110.084 47.9827 117.801 41.8551 119.963C29.1947 124.421 -1.91527 137.242 0.0928093 161.257C0.574303 167.02 32.2634 173 78.3594 173C124.452 173 156.145 167.02 156.627 161.257C158.634 137.218 127.444 124.669 114.864 119.963Z" fill="white"/>
</svg>
