<svg width="177" height="177" viewBox="0 0 177 177" fill="none" xmlns="http://www.w3.org/2000/svg">
<path d="M118.448 86.0416C116.627 70.7464 104.618 58.2819 88.4808 58.2819C72.098 58.2819 58.291 72.0753 58.291 88.4717C58.291 104.868 72.098 118.648 88.4808 118.648C104.622 118.648 116.623 106.174 118.448 90.8882C118.64 90.0964 118.715 89.2807 118.671 88.4672C118.713 87.6522 118.638 86.8353 118.448 86.0416ZM74.428 88.4581C74.428 70.2777 101.678 70.437 102.534 88.4581C101.678 106.456 74.428 106.661 74.428 88.4581Z" fill="white"/>
<path d="M169.166 80.3896H151.737C148.428 56.812 132.819 36.6338 109.901 28.274C105.593 26.7122 101.121 25.6436 96.5721 25.0885V7.79549C96.5721 -2.58939 80.4351 -2.6076 80.4351 7.79549V25.2022C64.5483 27.3183 49.4898 35.3141 39.164 47.9925C31.622 57.3009 26.8248 68.5279 25.3115 80.4123H7.79549C-2.58939 80.4123 -2.6076 96.5494 7.79549 96.5494H25.225C26.2652 105.315 29.1517 113.76 33.694 121.328C43.9651 138.371 61.3991 149.152 80.426 151.65V169.143C80.426 179.528 96.563 179.547 96.563 169.143V151.746C97.8919 151.587 99.2252 151.404 100.55 151.163C127.968 146.253 147.878 123.24 151.718 96.5266H169.166C179.551 96.5266 179.569 80.3896 169.166 80.3896ZM104.582 133.433C95.3828 136.655 85.424 137.014 76.0169 134.464C66.6099 131.914 58.1959 126.575 51.8835 119.149C23.6686 85.7003 54.2453 33.1706 97.3185 41.5077C119.959 45.8901 135.777 65.6268 136.228 88.4581C135.832 108.422 123.667 126.685 104.582 133.433Z" fill="white"/>
</svg>
