<svg width="147" height="140" viewBox="0 0 147 140" fill="none" xmlns="http://www.w3.org/2000/svg">
<path d="M122.259 45.4107H97.8076L99.2048 33.8833C101.301 16.767 97.8076 3.14381 86.6296 0H85.5816C84.4266 0.202806 83.3413 0.69308 82.4256 1.42563C81.5099 2.15819 80.7933 3.10945 80.3419 4.19175C80.3419 4.19175 60.4311 46.1093 48.9038 54.4928V125.753H53.4449C54.2018 125.688 54.964 125.779 55.6847 126.019C56.4054 126.26 57.0696 126.644 57.6366 127.15C62.527 130.643 78.9447 139.725 87.3282 139.725H104.794C125.403 139.725 143.218 125.753 144.965 98.1569L146.711 70.2119C146.911 66.9327 146.418 63.6482 145.265 60.5722C144.111 57.4961 142.323 54.6973 140.017 52.3578C137.71 50.0184 134.937 48.1908 131.878 46.9939C128.818 45.7969 125.541 45.2575 122.259 45.4107ZM0 62.8763V118.766C0 120.619 0.73605 122.396 2.04623 123.706C3.3564 125.017 5.13339 125.753 6.98626 125.753H34.9313V55.89H6.98626C5.13339 55.89 3.3564 56.6261 2.04623 57.9363C0.73605 59.2464 0 61.0234 0 62.8763Z" fill="white"/>
</svg>
